<svg width="567" height="117" viewBox="0 0 567 117" fill="none" xmlns="http://www.w3.org/2000/svg">
<path d="M563.31 75.84H559.549C557.946 75.84 556.641 77.46 556.641 79.43V75.23C556.641 72.5 554.828 70.27 552.602 70.27H547.41C545.184 70.27 543.371 72.5 543.371 75.23V88.85H536.5C535.953 86.06 533.919 84 531.482 84C529.045 84 527.01 86.06 526.463 88.85H483.744C483.197 86.06 481.163 84 478.726 84C476.289 84 474.274 86.06 473.727 88.85H466.847V75.23C466.847 72.5 465.033 70.27 462.807 70.27H457.616C455.399 70.27 453.576 72.5 453.576 75.23V79.43C453.576 77.47 452.271 75.84 450.669 75.84H446.907C445.305 75.84 444 77.46 444 79.43V101.32C444 103.28 445.305 104.89 446.907 104.89H450.669C452.271 104.89 453.576 103.29 453.576 101.32V105.52C453.576 108.23 455.39 110.46 457.616 110.46H462.807C465.033 110.46 466.847 108.23 466.847 105.52V93.54H474.255C475.156 95.45 476.817 96.73 478.726 96.73C480.636 96.73 482.315 95.45 483.217 93.54H526.991C527.893 95.45 529.553 96.73 531.482 96.73C533.411 96.73 535.071 95.45 535.973 93.54H543.371V105.52C543.371 108.23 545.184 110.46 547.41 110.46H552.602C554.818 110.46 556.641 108.23 556.641 105.52V101.32C556.641 103.28 557.946 104.89 559.549 104.89H563.31C564.913 104.89 566.217 103.29 566.217 101.32V79.43C566.217 77.47 564.913 75.84 563.31 75.84Z" fill="#231F20"/>
<path d="M504.154 15.9C506.016 15.71 508.232 16.41 508.232 16.41C508.232 16.41 507.273 14.73 504.154 14.62C501.026 14.73 500.076 16.41 500.076 16.41C500.076 16.41 502.283 15.72 504.154 15.9ZM511.063 13.19C510.996 16.4 508.472 17.23 508.472 17.23C507.09 17.09 505.641 17.04 504.144 17.12C502.648 17.04 501.208 17.08 499.817 17.23C499.817 17.23 497.293 16.4 497.226 13.19C497.159 9.99 499.232 7.07 504.144 7C509.048 7.07 511.12 9.99 511.053 13.19H511.063Z" fill="#231F20"/>
<path d="M529.256 29.97C531.703 35.44 529.256 39.59 527.644 44.33C526.032 49.07 526.531 53.66 526.531 53.66C525.408 49.44 521.771 42.87 519.113 43.24C513.519 51.18 504.164 50.36 504.164 50.36C504.164 50.36 494.798 51.18 489.204 43.24C486.546 42.87 482.91 49.44 481.787 53.66C481.787 53.66 482.286 49.07 480.674 44.33C479.062 39.59 476.615 35.43 479.062 29.97C481.24 25.12 488.993 18.27 499.836 17.24C501.227 17.1 502.676 17.05 504.164 17.13C505.66 17.05 507.1 17.09 508.491 17.24C519.334 18.27 527.097 25.12 529.265 29.97H529.256Z" fill="#231F20"/>
<path d="M509.796 54.84C509.796 54.84 519.632 50.17 521.349 51.55C523.067 52.93 522.606 54.79 521.599 55.04C519.785 55.48 521.301 54.28 519.593 54.38C517.876 54.48 508.827 58.64 509.806 54.84H509.796Z" fill="#231F20"/>
<path d="M498.733 54.84C498.733 54.84 488.897 50.17 487.18 51.55C485.462 52.93 485.923 54.79 486.93 55.04C488.744 55.48 487.228 54.28 488.936 54.38C490.653 54.48 499.702 58.64 498.723 54.84H498.733Z" fill="#231F20"/>
<path d="M516.849 57.4L520.073 55.38L511.6 58.54L514.968 58.08C514.949 58.17 514.92 58.24 514.92 58.33C514.92 59.01 515.448 59.56 516.1 59.56C516.753 59.56 517.281 59.01 517.281 58.33C517.281 57.95 517.108 57.63 516.839 57.4H516.849Z" fill="#231F20"/>
<path d="M491.68 57.4L488.456 55.38L496.919 58.54L493.551 58.08C493.57 58.17 493.599 58.24 493.599 58.33C493.599 59.01 493.071 59.56 492.428 59.56C491.785 59.56 491.248 59.01 491.248 58.33C491.248 57.95 491.421 57.63 491.68 57.4Z" fill="#231F20"/>
<path d="M509.297 70.02C509.297 70.02 510.285 75.72 504.26 76.39C498.234 75.73 499.222 70.02 499.222 70.02H500.882V71.24C500.882 71.24 500.776 71.95 501.343 72H507.205C507.771 71.95 507.656 71.24 507.656 71.24V70.02H509.316H509.297Z" fill="#231F20"/>
<path d="M504.26 77C504.26 77 504.221 77 504.202 77C502.168 76.78 500.652 75.99 499.682 74.65C498.205 72.6 498.627 70.03 498.646 69.92C498.694 69.63 498.944 69.42 499.222 69.42H509.297C509.585 69.42 509.825 69.63 509.873 69.92C509.892 70.03 510.314 72.6 508.837 74.65C507.877 75.99 506.351 76.78 504.317 77C504.298 77 504.279 77 504.25 77H504.26ZM499.75 70.63C499.721 71.36 499.798 72.77 500.623 73.91C501.371 74.95 502.599 75.57 504.26 75.76C505.92 75.56 507.148 74.94 507.896 73.91C508.721 72.77 508.798 71.36 508.769 70.63H499.759H499.75Z" fill="#231F20"/>
<path d="M507.532 66.27C507.455 66.41 507.378 66.54 507.292 66.67C507.225 66.81 507.071 66.89 506.946 67.01C506.812 67.12 506.678 67.19 506.524 67.26C506.38 67.32 506.236 67.4 506.092 67.44C505.488 67.64 504.874 67.67 504.24 67.65H504.288C503.655 67.66 503.041 67.65 502.436 67.44C502.283 67.41 502.149 67.32 501.995 67.26C501.851 67.19 501.707 67.12 501.582 67.01C501.467 66.9 501.314 66.83 501.237 66.68C501.151 66.54 501.064 66.4 500.997 66.27C501.122 66.37 501.227 66.47 501.333 66.57C501.429 66.68 501.592 66.71 501.707 66.78C501.832 66.86 501.966 66.91 502.11 66.94C502.254 66.97 502.379 67.03 502.523 67.04C502.811 67.08 503.089 67.13 503.377 67.14C503.665 67.14 503.962 67.14 504.24 67.12H504.288C504.567 67.15 504.864 67.15 505.152 67.14C505.44 67.13 505.728 67.08 506.006 67.04C506.15 67.04 506.284 66.98 506.419 66.94C506.562 66.91 506.697 66.86 506.812 66.79C506.927 66.72 507.081 66.7 507.196 66.58C507.311 66.47 507.416 66.37 507.541 66.27H507.532Z" fill="#231F20"/>
<path d="M40.416 93.576C35.296 93.576 30.56 92.744 26.208 91.08C21.92 89.352 18.176 86.952 14.976 83.88C11.84 80.808 9.376 77.192 7.584 73.032C5.856 68.872 4.992 64.328 4.992 59.4C4.992 54.472 5.856 49.928 7.584 45.768C9.376 41.608 11.872 37.992 15.072 34.92C18.272 31.848 22.016 29.48 26.304 27.816C30.656 26.088 35.392 25.224 40.512 25.224C45.632 25.224 50.304 26.024 54.528 27.624C58.816 29.224 62.464 31.656 65.472 34.92L61.056 39.432C58.24 36.616 55.136 34.6 51.744 33.384C48.352 32.168 44.704 31.56 40.8 31.56C36.64 31.56 32.8 32.264 29.28 33.672C25.824 35.016 22.784 36.968 20.16 39.528C17.6 42.024 15.584 44.968 14.112 48.36C12.704 51.688 12 55.368 12 59.4C12 63.368 12.704 67.048 14.112 70.44C15.584 73.832 17.6 76.808 20.16 79.368C22.784 81.864 25.824 83.816 29.28 85.224C32.8 86.568 36.608 87.24 40.704 87.24C44.544 87.24 48.16 86.664 51.552 85.512C55.008 84.36 58.176 82.408 61.056 79.656L65.088 85.032C61.888 87.848 58.144 89.992 53.856 91.464C49.568 92.872 45.088 93.576 40.416 93.576ZM58.272 84.168V59.4H65.088V85.032L58.272 84.168ZM84.138 112.104C81.77 112.104 79.498 111.72 77.322 110.952C75.21 110.184 73.386 109.032 71.85 107.496L75.018 102.408C76.298 103.624 77.674 104.552 79.146 105.192C80.682 105.896 82.378 106.248 84.234 106.248C86.474 106.248 88.394 105.608 89.994 104.328C91.658 103.112 93.226 100.936 94.698 97.8L97.962 90.408L98.73 89.352L119.466 42.6H126.186L100.938 99.048C99.53 102.312 97.962 104.904 96.234 106.824C94.57 108.744 92.746 110.088 90.762 110.856C88.778 111.688 86.57 112.104 84.138 112.104ZM97.578 94.44L74.346 42.6H81.45L101.994 88.872L97.578 94.44ZM198.761 42.12C202.857 42.12 206.409 42.92 209.417 44.52C212.489 46.056 214.857 48.424 216.521 51.624C218.249 54.824 219.113 58.856 219.113 63.72V93H212.297V64.392C212.297 59.08 211.017 55.08 208.457 52.392C205.961 49.64 202.409 48.264 197.801 48.264C194.345 48.264 191.337 49 188.777 50.472C186.281 51.88 184.329 53.96 182.921 56.712C181.577 59.4 180.905 62.664 180.905 66.504V93H174.089V64.392C174.089 59.08 172.809 55.08 170.249 52.392C167.689 49.64 164.105 48.264 159.497 48.264C156.105 48.264 153.129 49 150.569 50.472C148.009 51.88 146.025 53.96 144.617 56.712C143.273 59.4 142.601 62.664 142.601 66.504V93H135.785V42.6H142.313V56.232L141.257 53.832C142.793 50.184 145.257 47.336 148.649 45.288C152.105 43.176 156.169 42.12 160.841 42.12C165.769 42.12 169.961 43.368 173.417 45.864C176.873 48.296 179.113 51.976 180.137 56.904L177.449 55.848C178.921 51.752 181.513 48.456 185.225 45.96C189.001 43.4 193.513 42.12 198.761 42.12ZM239.038 93V25.8H268.03C275.518 25.8 281.31 27.304 285.406 30.312C289.566 33.32 291.646 37.576 291.646 43.08C291.646 46.728 290.782 49.8 289.054 52.296C287.39 54.792 285.086 56.68 282.142 57.96C279.262 59.24 276.094 59.88 272.638 59.88L274.27 57.576C278.558 57.576 282.238 58.248 285.31 59.592C288.446 60.872 290.878 62.824 292.606 65.448C294.334 68.008 295.198 71.208 295.198 75.048C295.198 80.744 293.086 85.16 288.862 88.296C284.702 91.432 278.398 93 269.95 93H239.038ZM246.142 87.144H269.854C275.742 87.144 280.254 86.152 283.39 84.168C286.526 82.12 288.094 78.888 288.094 74.472C288.094 70.12 286.526 66.952 283.39 64.968C280.254 62.92 275.742 61.896 269.854 61.896H245.374V56.04H267.55C272.926 56.04 277.086 55.016 280.03 52.968C283.038 50.92 284.542 47.88 284.542 43.848C284.542 39.752 283.038 36.712 280.03 34.728C277.086 32.68 272.926 31.656 267.55 31.656H246.142V87.144ZM309.973 93V42.6H316.501V56.328L315.829 53.928C317.237 50.088 319.605 47.176 322.933 45.192C326.261 43.144 330.389 42.12 335.317 42.12V48.744C335.061 48.744 334.805 48.744 334.549 48.744C334.293 48.68 334.037 48.648 333.781 48.648C328.469 48.648 324.309 50.28 321.301 53.544C318.293 56.744 316.789 61.32 316.789 67.272V93H309.973ZM367.829 93.48C362.965 93.48 358.581 92.392 354.677 90.216C350.837 87.976 347.797 84.936 345.557 81.096C343.317 77.192 342.197 72.744 342.197 67.752C342.197 62.696 343.317 58.248 345.557 54.408C347.797 50.568 350.837 47.56 354.677 45.384C358.517 43.208 362.901 42.12 367.829 42.12C372.821 42.12 377.237 43.208 381.077 45.384C384.981 47.56 388.021 50.568 390.197 54.408C392.437 58.248 393.557 62.696 393.557 67.752C393.557 72.744 392.437 77.192 390.197 81.096C388.021 84.936 384.981 87.976 381.077 90.216C377.173 92.392 372.757 93.48 367.829 93.48ZM367.829 87.432C371.477 87.432 374.709 86.632 377.525 85.032C380.341 83.368 382.549 81.064 384.149 78.12C385.813 75.112 386.645 71.656 386.645 67.752C386.645 63.784 385.813 60.328 384.149 57.384C382.549 54.44 380.341 52.168 377.525 50.568C374.709 48.904 371.509 48.072 367.925 48.072C364.341 48.072 361.141 48.904 358.325 50.568C355.509 52.168 353.269 54.44 351.605 57.384C349.941 60.328 349.109 63.784 349.109 67.752C349.109 71.656 349.941 75.112 351.605 78.12C353.269 81.064 355.509 83.368 358.325 85.032C361.141 86.632 364.309 87.432 367.829 87.432Z" fill="black"/>
</svg>
